<svg width="506" height="520" viewBox="0 0 506 520" fill="none" xmlns="http://www.w3.org/2000/svg">
<rect y="0.576172" width="505.094" height="519" rx="100" fill="white"/>
<path d="M399.137 171.245C399.019 169.652 397.693 168.419 396.106 168.419H341.381V153.128C341.381 104.223 301.828 64.4375 253.214 64.4375C204.6 64.4375 165.046 104.223 165.046 153.128V168.419H110.322C108.735 168.419 107.409 169.652 107.291 171.245L86.0087 452.608C85.9449 453.455 86.2337 454.293 86.8113 454.917C87.386 455.544 88.1947 455.899 89.0399 455.899H417.388C418.233 455.899 419.042 455.544 419.616 454.92C420.191 454.296 420.483 453.458 420.419 452.611L399.137 171.245ZM189.368 153.128C189.368 117.716 218.008 88.9038 253.214 88.9038C288.42 88.9038 317.059 117.716 317.059 153.128V168.419H189.368V153.128ZM177.207 254.051C160.44 254.051 146.805 240.332 146.805 223.469C146.805 211.263 152.885 200.265 165.046 195.439V223.469C165.046 230.215 170.504 235.702 177.207 235.702C183.911 235.702 189.368 230.215 189.368 223.469V195.458C201.529 200.284 207.61 211.364 207.61 223.469C207.61 240.332 193.974 254.051 177.207 254.051ZM329.22 254.051C312.453 254.051 298.818 240.332 298.818 223.469C298.818 211.263 304.898 200.265 317.059 195.439V223.469C317.059 230.215 322.517 235.702 329.22 235.702C335.924 235.702 341.381 230.215 341.381 223.469V195.458C353.543 200.284 359.623 211.364 359.623 223.469C359.623 240.332 345.987 254.051 329.22 254.051Z" fill="#40BFFF"/>
</svg>
