<svg width="512" height="512" viewBox="0 0 512 512" fill="none" xmlns="http://www.w3.org/2000/svg">
<rect width="512" height="512" rx="100" fill="#40BFFF"/>
<path d="M404.418 168.367C404.298 166.795 402.955 165.579 401.346 165.579H345.873V150.494C345.873 102.249 305.778 63 256.5 63C207.222 63 167.127 102.249 167.127 150.494V165.579H111.654C110.045 165.579 108.702 166.795 108.582 168.367L87.0088 445.935C86.9441 446.771 87.2369 447.597 87.8224 448.213C88.4049 448.831 89.2247 449.181 90.0814 449.181H422.919C423.775 449.181 424.595 448.831 425.178 448.216C425.76 447.6 426.056 446.774 425.991 445.938L404.418 168.367ZM191.782 150.494C191.782 115.56 220.812 87.1363 256.5 87.1363C292.188 87.1363 321.218 115.56 321.218 150.494V165.579H191.782V150.494ZM179.454 250.057C162.458 250.057 148.636 236.522 148.636 219.886C148.636 207.845 154.8 196.996 167.127 192.235V219.886C167.127 226.542 172.659 231.954 179.454 231.954C186.25 231.954 191.782 226.542 191.782 219.886V192.253C204.109 197.014 210.273 207.945 210.273 219.886C210.273 236.522 196.451 250.057 179.454 250.057ZM333.546 250.057C316.549 250.057 302.727 236.522 302.727 219.886C302.727 207.845 308.891 196.996 321.218 192.235V219.886C321.218 226.542 326.75 231.954 333.546 231.954C340.341 231.954 345.873 226.542 345.873 219.886V192.253C358.2 197.014 364.364 207.945 364.364 219.886C364.364 236.522 350.542 250.057 333.546 250.057Z" fill="white"/>
</svg>
